<svg width="188" height="47" viewBox="0 0 188 47" fill="none" xmlns="http://www.w3.org/2000/svg">
<path fill-rule="evenodd" clip-rule="evenodd" d="M42.0728 12.1327C41.2712 11.7765 40.3597 11.6235 39.3914 11.6597L29.5589 12.0437C28.6581 12.1557 28.0322 12.9842 28.1743 13.8753C28.3136 14.7492 29.14 15.3518 30.0189 15.2212L39.5331 14.8641C40.0877 14.8437 40.4905 14.932 40.7706 15.0565C41.1897 15.242 41.3728 15.4649 41.4873 15.8333C41.6032 16.2023 41.6067 16.7687 41.3132 17.4952L37.4705 27.006C36.6884 28.9419 33.6882 31.173 31.4705 31.2563L23.4169 31.5575C22.5161 31.6695 21.8902 32.498 22.0323 33.3892C22.1716 34.263 22.998 34.8656 23.8768 34.735L31.6123 34.4607C35.4936 34.3161 39.0979 31.61 40.4687 28.2172L44.3113 18.7064C44.8252 17.4344 44.946 16.1071 44.5695 14.9011C44.1953 13.6976 43.2766 12.6677 42.0728 12.1327ZM23.6803 13.3297C23.3986 13.1971 23.077 13.139 22.7499 13.1834L15.062 13.3561C11.2036 13.4499 7.64578 16.0254 6.32253 19.3006L2.61473 28.4777C1.95282 30.116 2.00608 31.8949 2.95911 33.2764C3.91017 34.6588 5.67422 35.4215 7.60338 35.3746L17.3748 35.122C18.2696 35.0243 18.8823 34.2284 18.7301 33.3624C18.5809 32.5133 17.7514 31.9189 16.8786 32.0349L7.42244 32.2649C6.31936 32.2909 5.86603 31.9719 5.61639 31.6101C5.36674 31.2484 5.23684 30.6227 5.61393 29.6893L9.32172 20.5122C10.0759 18.6456 13.0366 16.5194 15.2433 16.4656L23.2478 16.2709C24.1427 16.1732 24.7554 15.3772 24.6031 14.5113C24.5097 13.9815 24.1506 13.5505 23.6821 13.33L23.6803 13.3297ZM26.2008 15.4235C25.3888 15.1082 24.482 15.4941 24.1735 16.2853L23.9869 16.7473C22.804 16.911 21.6875 17.5035 20.927 18.5C19.3865 20.5176 19.8321 23.4561 21.9126 25.0052C22.6261 25.5365 22.7702 26.4809 22.2416 27.1724C21.713 27.8637 20.7541 27.9872 20.04 27.4572L19.4054 26.9875C18.7141 26.4605 17.7299 26.5753 17.2031 27.2425C16.6657 27.9241 16.7873 28.8844 17.5315 29.4389L18.166 29.9087L18.1655 29.9101C18.2959 30.0064 18.4305 30.0965 18.5682 30.1787C18.3073 30.9393 18.6849 31.7881 19.4564 32.1125C20.2763 32.4559 21.2113 32.0752 21.5263 31.2679L21.7108 30.8113C22.8951 30.6481 24.0105 30.0505 24.7728 29.0533C26.3133 27.0356 25.8672 24.0985 23.7867 22.5494C23.0731 22.0181 22.9291 21.0737 23.4577 20.3823C23.9862 19.6909 24.9457 19.5661 25.6598 20.096L26.2944 20.5658C26.9858 21.0928 27.9713 20.9785 28.4981 20.3113C29.0355 19.6298 28.8857 18.6362 28.1684 18.1143L27.5357 17.6438C27.4053 17.5475 27.2659 17.4693 27.1281 17.3872C27.4032 16.6074 27.0016 15.7349 26.2008 15.4235Z" fill="white"/>
<path d="M54.299 20.005V17.36H65.799V20.005H61.429V33H58.669V20.005H54.299ZM73.8052 23.754C73.0845 23.754 72.3945 23.869 71.7352 24.099C71.0912 24.3137 70.4702 24.6663 69.8722 25.157V33H67.2272V21.339H69.7342V23.133C70.5162 22.397 71.2138 21.8757 71.8272 21.569C72.4405 21.2623 73.0998 21.109 73.8052 21.109V23.754ZM84.9537 33.115C84.1717 33.115 83.543 32.954 83.0677 32.632C82.6077 32.31 82.2704 31.9113 82.0557 31.436C81.3964 32.0493 80.76 32.5017 80.1467 32.793C79.5334 33.0843 78.874 33.23 78.1687 33.23C77.1414 33.23 76.3824 32.9003 75.8917 32.241C75.4164 31.5817 75.1787 30.746 75.1787 29.734C75.1787 29.0593 75.3014 28.469 75.5467 27.963C75.8074 27.4417 76.229 27.0353 76.8117 26.744C77.3944 26.4527 78.1917 26.307 79.2037 26.307C79.6024 26.307 80.0164 26.3377 80.4457 26.399C80.875 26.445 81.3044 26.5063 81.7337 26.583V25.226C81.7337 24.582 81.5574 24.145 81.2047 23.915C80.852 23.6697 80.3767 23.547 79.7787 23.547C79.3187 23.547 78.8127 23.6083 78.2607 23.731C77.724 23.8537 77.1414 24.0453 76.5127 24.306L75.7537 22.052C77.3024 21.4233 78.7054 21.109 79.9627 21.109C81.0974 21.109 81.9714 21.3007 82.5847 21.684C83.2134 22.0673 83.6504 22.5733 83.8957 23.202C84.141 23.8307 84.2637 24.5053 84.2637 25.226V29.711C84.2637 29.941 84.325 30.1633 84.4477 30.378C84.5857 30.5773 84.8464 30.677 85.2297 30.677H85.4827V33.115H84.9537ZM77.7317 29.688C77.7317 30.102 77.8237 30.4317 78.0077 30.677C78.1917 30.907 78.46 31.022 78.8127 31.022C79.1654 31.022 79.564 30.93 80.0087 30.746C80.4534 30.562 81.0284 30.1327 81.7337 29.458V28.469C80.9364 28.331 80.1544 28.262 79.3877 28.262C78.7897 28.262 78.3604 28.3847 78.0997 28.63C77.8544 28.8753 77.7317 29.228 77.7317 29.688ZM93.4829 23.57C93.0996 23.57 92.6626 23.662 92.1719 23.846C91.6812 24.03 91.0986 24.3903 90.4239 24.927V33H87.7789V21.339H90.2859V22.903C91.0066 22.2743 91.6889 21.822 92.3329 21.546C92.9769 21.2547 93.6286 21.109 94.2879 21.109C95.4072 21.109 96.2582 21.4693 96.8409 22.19C97.4236 22.8953 97.7149 23.892 97.7149 25.18V33H95.0699V25.502C95.0699 24.214 94.5409 23.57 93.4829 23.57ZM104.477 30.93C105.044 30.93 105.512 30.838 105.88 30.654C106.248 30.4547 106.432 30.1633 106.432 29.78C106.432 29.4427 106.309 29.182 106.064 28.998C105.834 28.7987 105.412 28.6223 104.799 28.469L103.488 28.124C102.476 27.8633 101.724 27.4263 101.234 26.813C100.758 26.1997 100.521 25.4713 100.521 24.628C100.521 23.6313 100.866 22.7957 101.556 22.121C102.246 21.4463 103.311 21.109 104.753 21.109C105.335 21.109 105.949 21.178 106.593 21.316C107.237 21.454 107.911 21.6763 108.617 21.983L107.858 24.237C107.214 23.9303 106.631 23.7157 106.11 23.593C105.588 23.4703 105.128 23.409 104.73 23.409C103.641 23.409 103.097 23.777 103.097 24.513C103.097 24.8043 103.189 25.0343 103.373 25.203C103.572 25.3717 103.932 25.525 104.454 25.663L105.765 26.008C106.884 26.2993 107.697 26.744 108.203 27.342C108.724 27.94 108.985 28.6913 108.985 29.596C108.985 30.6693 108.617 31.5433 107.881 32.218C107.16 32.8927 106.018 33.23 104.454 33.23C103.12 33.23 101.717 32.9233 100.245 32.31L100.958 30.125C101.678 30.4163 102.33 30.6233 102.913 30.746C103.495 30.8687 104.017 30.93 104.477 30.93ZM118.439 23.639H114.805V33H112.16V23.639H110.274V21.339H112.16V20.12C112.16 18.8473 112.482 17.8047 113.126 16.992C113.77 16.164 114.805 15.75 116.231 15.75C116.752 15.75 117.289 15.8037 117.841 15.911C118.393 16.0183 118.891 16.1563 119.336 16.325L118.692 18.602C117.956 18.3567 117.296 18.234 116.714 18.234C116.1 18.234 115.625 18.372 115.288 18.648C114.966 18.9087 114.805 19.3993 114.805 20.12V21.339H118.439V23.639ZM129.225 32.333C128.427 32.655 127.676 32.885 126.971 33.023C126.265 33.161 125.598 33.23 124.97 33.23C123.237 33.23 121.926 32.7393 121.037 31.758C120.147 30.7767 119.703 29.4733 119.703 27.848V26.468C119.703 25.3793 119.902 24.4363 120.301 23.639C120.699 22.8417 121.267 22.2207 122.003 21.776C122.739 21.3313 123.605 21.109 124.602 21.109C125.414 21.109 126.173 21.2777 126.879 21.615C127.599 21.937 128.182 22.4507 128.627 23.156C129.087 23.846 129.317 24.7353 129.317 25.824C129.317 26.146 129.294 26.491 129.248 26.859C129.202 27.2117 129.125 27.5873 129.018 27.986H122.256C122.286 28.9367 122.524 29.6497 122.969 30.125C123.413 30.6003 124.126 30.838 125.108 30.838C125.629 30.838 126.166 30.7767 126.718 30.654C127.285 30.5313 127.868 30.3473 128.466 30.102L129.225 32.333ZM124.602 23.34C123.896 23.34 123.344 23.57 122.946 24.03C122.562 24.4747 122.34 25.1187 122.279 25.962H126.695C126.71 25.8853 126.718 25.8163 126.718 25.755C126.718 25.6783 126.718 25.6093 126.718 25.548C126.718 24.812 126.511 24.26 126.097 23.892C125.683 23.524 125.184 23.34 124.602 23.34ZM138.942 23.754C138.221 23.754 137.531 23.869 136.872 24.099C136.228 24.3137 135.607 24.6663 135.009 25.157V33H132.364V21.339H134.871V23.133C135.653 22.397 136.351 21.8757 136.964 21.569C137.577 21.2623 138.237 21.109 138.942 21.109V23.754ZM140.591 26.905V24.605H147.583V26.905H140.591ZM158.532 33L157.566 29.941H152.207L151.241 33H148.504L153.725 17.36H156.163L161.407 33H158.532ZM153.702 25.157L152.989 27.411H156.761L156.048 25.157L154.898 21.201L153.702 25.157ZM168.665 33.23C168.282 33.23 167.891 33.1917 167.492 33.115C167.109 33.0383 166.718 32.931 166.319 32.793V37.899H163.674V21.339H166.181V22.926C166.902 22.2053 167.515 21.7223 168.021 21.477C168.527 21.2317 169.056 21.109 169.608 21.109C170.881 21.109 171.862 21.5843 172.552 22.535C173.242 23.4857 173.587 24.8197 173.587 26.537V27.779C173.587 29.4503 173.166 30.7767 172.322 31.758C171.479 32.7393 170.26 33.23 168.665 33.23ZM168.895 23.57C168.543 23.57 168.167 23.6773 167.768 23.892C167.385 24.0913 166.902 24.4823 166.319 25.065V30.401C167.071 30.7077 167.761 30.861 168.389 30.861C169.279 30.861 169.915 30.585 170.298 30.033C170.682 29.481 170.873 28.7297 170.873 27.779V26.537C170.873 25.5097 170.697 24.7583 170.344 24.283C170.007 23.8077 169.524 23.57 168.895 23.57ZM181.648 33.23C181.265 33.23 180.874 33.1917 180.475 33.115C180.092 33.0383 179.701 32.931 179.302 32.793V37.899H176.657V21.339H179.164V22.926C179.885 22.2053 180.498 21.7223 181.004 21.477C181.51 21.2317 182.039 21.109 182.591 21.109C183.864 21.109 184.845 21.5843 185.535 22.535C186.225 23.4857 186.57 24.8197 186.57 26.537V27.779C186.57 29.4503 186.148 30.7767 185.305 31.758C184.462 32.7393 183.243 33.23 181.648 33.23ZM181.878 23.57C181.525 23.57 181.15 23.6773 180.751 23.892C180.368 24.0913 179.885 24.4823 179.302 25.065V30.401C180.053 30.7077 180.743 30.861 181.372 30.861C182.261 30.861 182.898 30.585 183.281 30.033C183.664 29.481 183.856 28.7297 183.856 27.779V26.537C183.856 25.5097 183.68 24.7583 183.327 24.283C182.99 23.8077 182.507 23.57 181.878 23.57Z" fill="white"/>
</svg>
